<svg xmlns="http://www.w3.org/2000/svg" viewBox="0 0 64 72" role="img" aria-label="Nordrhein-Westfalen Wappen">
  <defs>
    <clipPath id="shield">
      <path d="M32 2L54 10V30C54 46 43 60 32 66C21 60 10 46 10 30V10L32 2Z" />
    </clipPath>
  </defs>
  <path d="M32 2L54 10V30C54 46 43 60 32 66C21 60 10 46 10 30V10L32 2Z" fill="#F8FAFC" stroke="#0F172A" stroke-width="2" />
  <g clip-path="url(#shield)">
    <rect x="-6" y="18" width="76" height="14" transform="rotate(-12 32 36)" fill="#4D7C0F" />
    <rect x="-6" y="36" width="76" height="10" transform="rotate(-12 32 36)" fill="#BEF264" opacity="0.65" />
  </g>
  <path d="M32 8L48 14V30C48 42 40.5 52 32 56C23.5 52 16 42 16 30V14L32 8Z" fill="none" stroke="#0F172A" stroke-width="1.3" opacity="0.35" />
  <text x="32" y="46" text-anchor="middle" font-family="ui-sans-serif, system-ui, -apple-system, Segoe UI, sans-serif" font-size="14" font-weight="700" fill="#0F172A">NW</text>
</svg>
